<?xml version="1.0" encoding="UTF-8"?>
<svg id="Layer_1" data-name="Layer 1" xmlns="http://www.w3.org/2000/svg" xmlns:xlink="http://www.w3.org/1999/xlink" viewBox="0 0 51.61 33.62">
  <defs>
    <style>
      .cls-1 {
        fill: url(#linear-gradient);
      }

      .cls-1, .cls-2, .cls-3, .cls-4, .cls-5, .cls-6 {
        stroke-width: 0px;
      }

      .cls-2 {
        fill: url(#linear-gradient-4);
      }

      .cls-3 {
        fill: url(#linear-gradient-2);
      }

      .cls-4 {
        fill: url(#linear-gradient-3);
      }

      .cls-5 {
        fill: url(#linear-gradient-5);
      }

      .cls-6 {
        fill: #fff;
      }
    </style>
    <linearGradient id="linear-gradient" x1="-146.29" y1="717.53" x2="-143.8" y2="717.53" gradientTransform="translate(496.84 -555.26) rotate(26.22)" gradientUnits="userSpaceOnUse">
      <stop offset="0" stop-color="#866326"/>
      <stop offset="0" stop-color="#a1843f"/>
      <stop offset="0" stop-color="#c7b363"/>
      <stop offset="0" stop-color="#e3d67d"/>
      <stop offset="0" stop-color="#f4eb8d"/>
      <stop offset="0" stop-color="#fbf393"/>
      <stop offset="0" stop-color="#f9ef8e"/>
      <stop offset=".03" stop-color="#f6e681"/>
      <stop offset=".04" stop-color="#efd76b"/>
      <stop offset=".05" stop-color="#eed364"/>
      <stop offset=".1" stop-color="#e8c857"/>
      <stop offset=".21" stop-color="#e7c554"/>
      <stop offset=".22" stop-color="#e7c554"/>
      <stop offset=".28" stop-color="#e7c554"/>
      <stop offset=".31" stop-color="#eacb5b"/>
      <stop offset=".38" stop-color="#edd162"/>
      <stop offset=".55" stop-color="#eed364"/>
      <stop offset=".94" stop-color="#866326"/>
    </linearGradient>
    <linearGradient id="linear-gradient-2" x1="1316.13" y1="-617.48" x2="1300.26" y2="-600.58" gradientTransform="translate(856.16 1190.23) rotate(-100.94)" gradientUnits="userSpaceOnUse">
      <stop offset=".05" stop-color="#eed364"/>
      <stop offset=".05" stop-color="#e7cb5f"/>
      <stop offset=".09" stop-color="#c4a64b"/>
      <stop offset=".13" stop-color="#a9883a"/>
      <stop offset=".16" stop-color="#95732f"/>
      <stop offset=".2" stop-color="#896728"/>
      <stop offset=".23" stop-color="#866326"/>
      <stop offset=".24" stop-color="#876426"/>
      <stop offset=".26" stop-color="#b39341"/>
      <stop offset=".29" stop-color="#d3b654"/>
      <stop offset=".3" stop-color="#e6cb5f"/>
      <stop offset=".32" stop-color="#eed364"/>
      <stop offset=".32" stop-color="#f0d96d"/>
      <stop offset=".35" stop-color="#f6e782"/>
      <stop offset=".37" stop-color="#f9f08e"/>
      <stop offset=".39" stop-color="#fbf393"/>
      <stop offset=".41" stop-color="#f9ef8e"/>
      <stop offset=".44" stop-color="#f5e581"/>
      <stop offset=".46" stop-color="#eed56b"/>
      <stop offset=".48" stop-color="#e7c554"/>
      <stop offset=".59" stop-color="#bf9d41"/>
      <stop offset=".75" stop-color="#866326"/>
      <stop offset=".75" stop-color="#8a6728"/>
      <stop offset=".79" stop-color="#bc993f"/>
      <stop offset=".82" stop-color="#dbb94e"/>
      <stop offset=".84" stop-color="#e7c554"/>
      <stop offset="1" stop-color="#e7c554"/>
    </linearGradient>
    <linearGradient id="linear-gradient-3" x1="512.89" y1="1446.76" x2="479.15" y2="1483.67" gradientTransform="translate(1321.05 -843.62) rotate(75.57)" gradientUnits="userSpaceOnUse">
      <stop offset=".05" stop-color="#eed364"/>
      <stop offset=".1" stop-color="#f6e369"/>
      <stop offset=".17" stop-color="#fcef6e"/>
      <stop offset=".23" stop-color="#fff470"/>
      <stop offset=".24" stop-color="#fcef6e"/>
      <stop offset=".29" stop-color="#f1da66"/>
      <stop offset=".32" stop-color="#eed364"/>
      <stop offset=".32" stop-color="#f0d96d"/>
      <stop offset=".35" stop-color="#f6e782"/>
      <stop offset=".37" stop-color="#f9f08e"/>
      <stop offset=".39" stop-color="#fbf393"/>
      <stop offset=".41" stop-color="#f9ef8e"/>
      <stop offset=".44" stop-color="#f5e581"/>
      <stop offset=".46" stop-color="#eed56b"/>
      <stop offset=".48" stop-color="#e7c554"/>
      <stop offset=".58" stop-color="#cba448"/>
      <stop offset=".75" stop-color="#9c6a35"/>
      <stop offset=".79" stop-color="#c39945"/>
      <stop offset=".82" stop-color="#ddb94f"/>
      <stop offset=".84" stop-color="#e7c554"/>
      <stop offset="1" stop-color="#e7c554"/>
    </linearGradient>
    <linearGradient id="linear-gradient-4" x1="37.91" y1="28.82" x2="-5.76" y2="5.6" gradientUnits="userSpaceOnUse">
      <stop offset=".05" stop-color="#eed364"/>
      <stop offset=".1" stop-color="#f6e369"/>
      <stop offset=".17" stop-color="#fcef6e"/>
      <stop offset=".23" stop-color="#fff470"/>
      <stop offset=".24" stop-color="#fcef6e"/>
      <stop offset=".29" stop-color="#f1da66"/>
      <stop offset=".32" stop-color="#eed364"/>
      <stop offset=".32" stop-color="#f0d96d"/>
      <stop offset=".35" stop-color="#f6e782"/>
      <stop offset=".37" stop-color="#f9f08e"/>
      <stop offset=".39" stop-color="#fbf393"/>
      <stop offset=".41" stop-color="#f9ef8e"/>
      <stop offset=".44" stop-color="#f5e581"/>
      <stop offset=".46" stop-color="#eed56b"/>
      <stop offset=".48" stop-color="#e7c554"/>
      <stop offset=".58" stop-color="#cba448"/>
      <stop offset=".75" stop-color="#9c6a35"/>
      <stop offset=".79" stop-color="#c39945"/>
      <stop offset=".82" stop-color="#ddb94f"/>
      <stop offset=".84" stop-color="#e7c554"/>
      <stop offset="1" stop-color="#e7c554"/>
    </linearGradient>
    <linearGradient id="linear-gradient-5" x1="34.38" y1="19.26" x2="25.95" y2="14.78" gradientUnits="userSpaceOnUse">
      <stop offset=".05" stop-color="#eed364"/>
      <stop offset=".1" stop-color="#f6e369"/>
      <stop offset=".17" stop-color="#fcef6e"/>
      <stop offset=".23" stop-color="#fff470"/>
      <stop offset=".24" stop-color="#fcef6e"/>
      <stop offset=".29" stop-color="#f1da66"/>
      <stop offset=".32" stop-color="#eed364"/>
      <stop offset=".32" stop-color="#f0d96d"/>
      <stop offset=".35" stop-color="#f6e782"/>
      <stop offset=".37" stop-color="#f9f08e"/>
      <stop offset=".39" stop-color="#fbf393"/>
      <stop offset=".41" stop-color="#f9ef8e"/>
      <stop offset=".44" stop-color="#f5e581"/>
      <stop offset=".46" stop-color="#eed56b"/>
      <stop offset=".48" stop-color="#e7c554"/>
      <stop offset=".58" stop-color="#cba448"/>
      <stop offset=".75" stop-color="#9c6a35"/>
      <stop offset=".79" stop-color="#c39945"/>
      <stop offset=".82" stop-color="#ddb94f"/>
      <stop offset=".84" stop-color="#e7c554"/>
      <stop offset="1" stop-color="#e7c554"/>
    </linearGradient>
  </defs>
  <path class="cls-6" d="M13.11,14.62c0-.1.1-.1.2-.1s.1.1,0,.2l-.5.6-.9.6c-.3.2-.6.3-1,.4-.3.1-.6,0-.8-.2-.1-.1-.2-.2-.2-.4s0-.4.1-.6.2-.5.4-.9l.6-1.2.4-.7.3-.6.2-.5v-.4l-.2-.2c-.1-.1-.3,0-.4.1l-.6.6-.8.8-.9,1.1c-.3.4-.6.8-.8,1.2l-.2.4-.2.5-.2.5-.2.3-.1.2h-1.2s-.1,0-.1-.1v-.1l.3-.6.3-.6.4-.7.3-.6.7-1.2.3-.8.1-.5c0-.1,0-.2-.1-.3l-.2-.2c-.1-.1-.2,0-.4.1l-.9.8-1,1.1-.9,1.2-.6,1.1-.3.7-.3.5-.1.1-.1.1h-1l-.2-.1c-.1,0-.1-.1,0-.1l.7-1.3.8-1.5.8-1.5.6-1.2v-.2l-.1-.1-.1-.1s0-.1.1-.1l.2-.1h.8l.3.1.2.2c0,.1-.1.3-.2.6l-.4.8-.5.9-.4.7c.6-.8,1.1-1.5,1.7-2,.6-.6,1.1-1,1.7-1.1h.6c.2,0,.4.1.4.2.2.3.2.6.1,1-.1.4-.3.9-.5,1.4l.7-.8.8-.8.8-.6.5-.4.4-.1h.3l.2.1.1.1c.2.2.3.4.2.7,0,.3-.1.6-.3.9l-.5,1.1-.5.9-.3.6-.2.4-.1.3v.2c0,.2.1.3.3.3s.4-.1.6-.2c.2-.1.4-.3.6-.5.2-.1.3-.2.4-.4h0Z"/>
  <path class="cls-6" d="M17.41,13.92c-.2.4-.5.7-.9,1.1l-1.1.9c-.4.2-.7.4-1.1.4s-.6-.1-.9-.4c-.1-.2-.2-.5-.1-.8s.2-.8.4-1.3l.7-1.6.8-1.7.1-.2.1-.2.1-.1h1.3v.1l-.1.1v.1l-.4.9-.4,1-.5,1-.4.9c-.2.3-.2.6-.2.8s0,.4.1.4c.1.1.3.1.5.1s.4-.1.6-.3l.6-.5.6-.6.5-.6.3-.5.5-1,.3-.6.2-.4.2-.3.1-.2.1-.2.1-.1h1.1v.1l-.1.1-.1.1-.8,1.7-.9,1.8-.9,1.8-.7,1.6c-.5.8-.9,1.5-1.4,2.1-.4.6-1,1.1-1.6,1.5-.7.4-1.3.7-2,.8l-1.7.2-1.4-.3c-.4-.1-.6-.2-.8-.3-.2-.1-.3-.2-.3-.4-.1-.1-.1-.2,0-.3,0-.1.1-.1.2-.1s.2.1.4.3c.2.2.4.5.8.6.3.2.7.3,1.1.3l1.3-.1c.4-.1.9-.3,1.3-.6.6-.5,1.2-1.1,1.7-1.8.6-.7,1-1.5,1.4-2.3l.4-.9.5-1,.4-1.1h0Z"/>
  <path class="cls-6" d="M46.71,27.12l-.2.4-.3.5-.3.5-.2.3-.1.1-.1.1h-1l-.2-.1v-.1l.7-1.3.8-1.5.8-1.5.6-1.2v-.2l-.1-.1-.1-.1s0-.1.1-.1l.5-.1h.5l.3.1.1.2c0,.1,0,.3-.1.5l-.3.7-.4.8-.4.7"/>
  <path class="cls-1" d="M51.01,24.42c.4-.7.5-1.3.5-1.6q0-.1-.1-.1c-.5,0-1.9-.1-3.3,2.1,0,0-.1.2-.2.4-.2.3-.3.6-.3.6,0,0,.2-.3.7-.6.7-.5,1.7-.7,2.7-.8,0,.1,0,0,0,0h0Z"/>
  <path class="cls-3" d="M8.71,19.82c-.7.1-1.3.4-1.5.5-.1,0-.1.1,0,.2.3.5,1.1,1.5,3.7,1.4,0,0,.2,0,.5-.1s.7-.1.7-.1c0,0-.4,0-.9-.1-.9-.3-1.6-1-2.3-1.7q-.1-.1-.2-.1h0Z"/>
  <g>
    <path class="cls-6" d="M27.41,32.92c-.1,0-.1.1-.2.1s-.1,0-.2.1h-.2c-.1,0-.3,0-.4-.1-.1,0-.2-.1-.3-.2s-.2-.2-.2-.3-.1-.3-.1-.4,0-.3.1-.4c0-.1.1-.2.2-.3.1-.1.2-.2.3-.2s.3-.1.4-.1h.2q.1,0,.2.1c.1,0,.1.1.2.1s.1.1.1.1l-.1.2c-.1-.1-.2-.1-.3-.2-.1-.1-.2-.1-.3-.1s-.2,0-.3.1-.2.1-.2.2c-.1.1-.1.2-.2.3,0,.1-.1.2-.1.3s0,.2.1.3c0,.1.1.2.2.3s.1.1.2.2c.1,0,.2.1.3.1s.2,0,.4-.1c.1,0,.2-.1.3-.2l.1.1c-.1-.1-.2,0-.2,0h0Z"/>
    <path class="cls-6" d="M27.91,31.32v-.2h.2v.2h-.2ZM27.91,33.12v-1.5h.2v1.5h-.2Z"/>
    <path class="cls-6" d="M28.91,33.12h-.2v-1.5h.2v.4c0-.1.1-.1.1-.2s.1-.1.1-.1c0,0,.1-.1.2-.1h.2v.2h-.2c-.1,0-.1.1-.2.1,0,.1-.1.1-.1.2v1h-.1Z"/>
    <path class="cls-6" d="M30.81,33.12c-.1,0-.2.1-.4.1-.1,0-.2,0-.3-.1s-.2-.1-.2-.2c-.1-.1-.1-.2-.2-.2,0-.1-.1-.2-.1-.3s0-.2.1-.3c0-.1.1-.2.2-.2s.1-.1.2-.2c.1,0,.2-.1.3-.1h.2q.1,0,.2.1s.1,0,.1.1l.1.1-.1.2q-.1-.1-.2-.2c-.1,0-.1-.1-.2-.1h-.2c-.1,0-.1.1-.2.1s-.1.1-.1.2v.4s.1.1.1.2c0,0,.1.1.2.1h.2c.1,0,.2,0,.2-.1s.1-.1.2-.2l.1.1c-.1.3-.2.4-.2.5h0Z"/>
    <path class="cls-6" d="M31.41,33.12v-2.1h.2v2.1h-.2Z"/>
    <path class="cls-6" d="M32.31,32.72c0,.1.1.1.1.2s.1.1.2.1h.2c.1,0,.2,0,.3-.1l.2-.2.1.1-.2.2s-.2.1-.3.1-.2,0-.3-.1-.2-.1-.2-.2c-.1-.1-.1-.2-.2-.2s-.2-.1-.2-.2v-.3c0-.1.1-.2.2-.2l.2-.2c.1,0,.2-.1.3-.1s.2,0,.3.1.2.1.2.2.1.2.1.2v.3h-1.2c.2.1.2.2.2.3h0ZM33.21,32.32v-.2q0-.1-.1-.2t-.1-.1h-.4l-.1.1s-.1.1-.1.2v.2h.8Z"/>
    <path class="cls-6" d="M36.01,32.72c0,.1-.1.2-.2.2s-.2.1-.2.2c-.1,0-.2.1-.3.1s-.2,0-.3-.1-.2-.1-.2-.2c-.1-.1-.1-.2-.2-.2s-.1-.2-.1-.3,0-.2.1-.3c0-.1.1-.2.2-.2s.2-.1.2-.2c.1,0,.2-.1.3-.1s.2,0,.3.1.2.1.2.2c.1.1.1.2.2.2s.1.2.1.3,0,.2-.1.3ZM35.81,32.22c0-.1-.1-.1-.1-.2,0,0-.1-.1-.2-.1h-.4c-.1,0-.1.1-.2.1s-.1.1-.1.2v.4c0,.1.1.1.1.2,0,0,.1.1.2.1h.4c.1,0,.1-.1.2-.1s.1-.1.1-.2v-.4Z"/>
    <path class="cls-6" d="M37.21,31.62v.2h-.5v1.3h-.2v-1.3h-.2v-.2h.2v-.1c0-.2,0-.3.1-.4s.2-.1.3-.1h.2v.2h-.2c-.2,0-.3.1-.3.3v.1h.6Z"/>
    <path class="cls-6" d="M38.61,31.82h0l.2.2s.2,0,.3.1c.2,0,.4.1.5.2.1.1.2.2.2.4v.2s-.1.1-.1.2c-.1,0-.1.1-.2.1h-.3c-.2,0-.3,0-.4-.1-.1,0-.3-.1-.4-.2l.1-.2c.1.1.2.2.3.2s.2.1.4.1.2,0,.3-.1.1-.1.1-.2v-.1s0-.1-.1-.1-.2-.2-.2-.2c0,0-.2,0-.3-.1-.1,0-.2,0-.3-.1-.1,0-.2-.1-.2-.1,0,0-.1-.1-.1-.2v-.4s.1-.1.1-.2c.1,0,.1-.1.2-.1h.3c.2,0,.3,0,.4.1.1,0,.2.1.3.2l-.1.2c-.1-.1-.2-.1-.3-.2h-.5s-.1,0-.1.1l-.1.1v.1s0,0,0,.1h0Z"/>
    <path class="cls-6" d="M40.51,31.82q-.1,0-.2.1l-.1-.2c.1,0,.2-.1.2-.1h.3c.2,0,.3,0,.5.2.1.1.2.2.2.4v.9h-.2v-.2c0,.1-.1.1-.2.2-.1,0-.2.1-.3.1h-.2q-.1,0-.2-.1l-.1-.1v-.4c0-.1.1-.1.1-.2s.1-.1.2-.1h.6c0-.1,0-.2-.1-.3s-.2-.1-.3-.1c-.1-.1-.2-.1-.2-.1h0ZM40.41,32.52c-.1,0-.1.1-.1.2v.1s0,.1.1.1c0,0,.1,0,.1.1h.3q.1,0,.2-.1l.1-.1v-.3h-.4c-.1-.1-.2-.1-.3,0Z"/>
    <path class="cls-6" d="M42.61,31.62v.2h-.5v1.3h-.2v-1.3h-.2v-.2h.2v-.1c0-.2,0-.3.1-.4s.2-.1.3-.1h.2v.2h-.2c-.2,0-.3.1-.3.3v.1h.6Z"/>
    <path class="cls-6" d="M43.01,32.72c0,.1.1.1.1.2s.1.1.2.1h.2c.1,0,.2,0,.3-.1l.2-.2.1.1-.2.2s-.2.1-.3.1-.2,0-.3-.1-.3,0-.3-.1c-.1-.1-.1-.2-.2-.2s-.1-.2-.1-.3v-.3c0-.1.1-.2.2-.2l.2-.2c.1,0,.2-.1.3-.1s.2,0,.3.1.2.1.2.2.1.2.1.2v.3h-1v.3h0ZM43.91,32.32v-.2q0-.1-.1-.2t-.1-.1h-.4l-.1.1s-.1.1-.1.2v.2h.8Z"/>
    <path class="cls-6" d="M44.81,32.72c0,.1,0,.2.1.2h.4v.2h-.4q-.1,0-.1-.1l-.1-.1v-1.1h-.2v-.2h.2v-.4h.2v.4h.5v.2h-.5l-.1.9h0Z"/>
    <path class="cls-6" d="M46.41,33.22c-.1.2-.1.3-.2.3-.1.1-.2.1-.3.1h-.2s-.1,0-.2-.1l.1-.2h.2q.1,0,.2-.1t.1-.2l-.7-1.5h.2l.5,1.2.5-1.2h.4l-.6,1.7h0Z"/>
  </g>
  <g>
    <path class="cls-4" d="M27.71,5.62c1.9-.4,3.4-1.3,3.9-1.7.1-.1.1-.2.1-.3-.7-1-4.3-5.3-9.4-2.9h0s-.4.2-.8.4c-.2.1-.2.4,0,.4,2.3.9,4.4,2.2,6.1,4-.1.1,0,.1.1.1h0Z"/>
    <path class="cls-2" d="M1.71,19.92c1.5,7.7,9.1,13.1,17.2,11.5,1.6-.3,3.1-.9,4.4-1.8h0c.4,0,1-.1,1.6-.3.1,0,.2.1.1.2-1.8,1.4-4,2.3-6.3,2.8-8.5,1.7-16.7-3.8-18.4-12.2C-1.39,11.62,4.11,3.32,12.61,1.62c7.1-1.4,14,2.2,17.1,8.5h0s-6.5,2.6-9.6-3h0c-.1-.1-1.9-4.1-5.5-4.3h0c-.6,0-1.1.1-1.7.2C5.21,4.62.21,12.32,1.71,19.92Z"/>
    <path class="cls-5" d="M30.41,22.12h-.8c-.1,0-.1-.1-.1-.1.9-2.5,1.1-5.2.6-7.8-.2-.8-.4-1.5-.6-2.2q0-.1.1-.2c.4-.1.5-.1.7-.1q.1,0,.2.1c.3.8.5,1.5.6,2.3.5,2.8.3,5.5-.5,8-.1-.1-.1,0-.2,0h0Z"/>
  </g>
  <g>
    <path class="cls-6" d="M23.71,17.62c.4.2.6.4.8.6.2.2.3.5.3.7,0,.3,0,.5-.1.8-.1.2-.3.5-.5.7s-.4.3-.7.4l-.9.1q-.1,0-.1-.1s0-.1.1-.1c.2,0,.4-.1.6-.3.2-.2.3-.3.5-.6.1-.2.2-.4.3-.7v-.7c-.1-.2-.2-.4-.4-.6-.2-.2-.4-.3-.8-.3h-.8c-.3,0-.6.1-.9.3-.3.1-.5.3-.7.6-.2.3-.3.6-.3,1,0,.5.1.9.4,1.4s.6.9.9,1.3l.7,1c.2.3.4.7.5,1.1s.2.8.2,1.2-.1.8-.2,1.3c-.2.5-.5.8-.8,1.1-.3.3-.7.5-1.2.7s-1,.3-1.5.4-1.1.1-1.8,0c-.7,0-1.3-.2-1.7-.4-.4-.2-.8-.5-1.1-.8-.2-.3-.4-.6-.5-1s-.1-.7,0-1.1c0-.1.1-.1.2-.1l.1.1.2.7c.1.2.2.5.3.7s.3.5.5.7.5.4.8.6c.3.1.6.2.9.3l1.1.1.7-.1c.3,0,.6-.1.9-.2s.6-.3.8-.6c.2-.2.4-.6.5-1s.1-.8,0-1.1-.2-.6-.5-.9l-.5-.7-.7-.9c-.2-.3-.4-.6-.5-1-.1-.3-.2-.7-.3-1-.1-.3-.1-.6-.1-1s0-.6.1-.9c0-.1.1-.2.1-.1.1,0,.1.1.1.2v.8c0,.2,0,.5.1.8s.2.6.4.9.4.7.7,1.1l.8,1,.2.2.2.2q.1.1.2.1v-.1l-.3-.3-.2-.3-.2-.3-.3-.5-.3-.5c-.1-.2-.2-.4-.3-.6-.1-.2-.2-.4-.2-.7,0-.2-.1-.5-.1-.8,0-.5.1-1,.3-1.4.2-.4.4-.8.8-1,.3-.3.7-.5,1.1-.6l1.4-.1.4.1.3.2h0ZM17.51,28.12h-.5c-.2,0-.4-.1-.6-.2s-.4-.3-.6-.5c-.2-.2-.4-.5-.5-.9s-.2-.8-.1-1.1c.1-.4.1-.7.3-1,.1-.3.3-.5.4-.7l.4-.4h.1v.2l-.4.3-.2.7c-.1.2-.1.5-.1.8s0,.5.1.8c.2.5.4,1,.7,1.3s.6.5.9.6l.1.1h0Z"/>
    <path class="cls-6" d="M30.21,22.82h.1v.1l-.1.1-.1.1-.9,1.7-.9,1.8-.4.9c-.1.3-.1.4-.1.5.1.2.2.3.4.3s.4-.1.5-.2l.5-.4.4-.5c0-.1.1-.1.2-.1s.1.1,0,.2l-.3.4-.5.5-.6.4c-.2.1-.4.2-.6.3l-.6.1c-.2,0-.3-.1-.4-.2-.2-.3-.2-.6-.1-.9s.2-.7.4-1.2c-.4.5-.7.9-1.1,1.2l-1.1.8c-.3.2-.6.3-.9.3s-.5-.1-.8-.3c-.1-.1-.2-.2-.2-.4v-.6l.2-.7.3-.7.7-1.5.8-1.6.1-.2.1-.2.1-.1h1.3v.1l-.1.1-.1.1-.9,1.7-.9,1.8c-.2.3-.3.6-.4.9-.1.2-.1.5,0,.6s.2.2.4.2.3,0,.5-.1.4-.2.6-.4l.6-.6.5-.7.4-.7.6-1.2.6-1.2.1-.2.1-.2.1-.1h1.5Z"/>
    <path class="cls-6" d="M37.21,27.32c0-.1.1-.1.2-.1s.1.1,0,.2c-.2.2-.4.5-.7.7l-1,.6c-.3.2-.7.2-1,.3-.3,0-.5,0-.7-.2-.1-.1-.2-.3-.2-.4,0-.2,0-.4.1-.6l.4-.8.6-1.2.4-.7.3-.6.2-.5v-.4c0-.1-.1-.1-.2-.1l-.4.1-.5.4-.8.7-.9,1c-.3.4-.6.9-1,1.4l-.2.4-.3.5-.3.5-.2.3-.1.1.1.1h-1l-.2-.1c-.1,0-.1-.1,0-.1l.7-1.3.8-1.5.8-1.5.6-1.1v-.1l-.1-.1-.1-.1s0-.1.1-.1l.2-.1h.8l.3.1.1.2c0,.1,0,.3-.1.5l-.4.6-.4.8-.4.7.7-.9.9-.9.8-.7.8-.4.7-.1c.2,0,.4,0,.6.1.2.1.2.4.2.7s-.1.6-.3,1l-.5,1.1-.6.9-.3.6-.2.4-.1.3v.2c0,.2.1.3.3.3s.4-.1.6-.2c.2-.1.4-.3.6-.5.1,0,.2-.2.3-.4h0Z"/>
    <path class="cls-6" d="M44.61,23.82l-.5.8-.5,1-.4.8-.3.8-.2.6c-.1.2-.1.3,0,.4.1.3.2.4.4.4s.3-.1.5-.2l.5-.5.3-.5c0-.1.1-.1.2-.1s.1.1,0,.2l-.2.3-.3.3-.3.3-.3.3c-.1.1-.2.1-.4.2l-.5.1h-.5c-.2,0-.3-.1-.4-.3-.1-.1-.1-.2-.1-.4v-.5l.1-.6.3-.7-1,1.1c-.3.3-.5.6-.8.8-.6.5-1,.7-1.4.6-.4,0-.7-.3-.8-.6-.2-.4-.2-.9-.1-1.5.1-.6.4-1.2.8-1.9.3-.4.6-.8.9-1,.3-.3.6-.5,1-.7.3-.2.6-.3.9-.4l.7-.1h.5l.4.1.3.1h.2c.1-.1.3-.2.4-.2h.4l.4.1.2.1h0s-.4.8-.4.8h0ZM43.51,23.42c-.1-.2-.3-.3-.5-.4-.2,0-.5,0-.8.1s-.6.3-.9.6-.7.6-1,1c-.2.3-.4.6-.6,1l-.4.9-.2.7v.5c0,.2.1.3.2.4h.4l.4-.1.3-.2c.4-.3.7-.6.9-.9l.6-.9,1.6-2.7h0Z"/>
  </g>
  <g>
    <path class="cls-6" d="M50.11,21.82h-.1v-.9h-.3v-.1h.8v.1h-.3l-.1.9h0Z"/>
    <path class="cls-6" d="M51.11,21.62h0l-.4-.5v.8h-.1v-1h.1l.4.6.4-.6h.1v1h-.1v-.8l-.4.5h0Z"/>
  </g>
</svg>