<svg id="glipy" viewBox="0 0 64 64" xmlns="http://www.w3.org/2000/svg" width="300" height="300" version="1.1" xmlns:xlink="http://www.w3.org/1999/xlink" xmlns:svgjs="http://svgjs.dev/svgjs"><g width="100%" height="100%" transform="matrix(1,0,0,1,0,0)"><path d="m17.07 4.98958a13.08251 13.08251 0 0 0 -13.07 13.07002c.71538 17.33959 25.42729 17.33456 26.14-.00012a13.08249 13.08249 0 0 0 -13.07-13.0699zm1.498 12.06463a3.99662 3.99662 0 0 1 0 7.99279h-.4926v1.23661a1.0055 1.0055 0 0 1 -2.01077-.00006v-1.23655h-3.47863a1.00555 1.00555 0 0 1 .00006-2.01077h3.4786v-3.97123h-.49266a3.9969 3.9969 0 0 1 -3.99141-4.00148 4.05384 4.05384 0 0 1 4.484-3.99129v-1.23668a1.0055 1.0055 0 0 1 2.01077.00006v1.23655h3.47866a1.00555 1.00555 0 0 1 -.00006 2.01077h-3.47856v3.97128z" fill="#3f1840" fill-opacity="1" data-original-color="#000000ff" stroke="none" stroke-opacity="1"/><path d="m18.0754 23.03621a2.03369 2.03369 0 1 0 0-3.97122z" fill="#3f1840" fill-opacity="1" data-original-color="#000000ff" stroke="none" stroke-opacity="1"/><path d="m16.06463 17.05421v-3.97128a2.03121 2.03121 0 1 0 0 3.97128z" fill="#3f1840" fill-opacity="1" data-original-color="#000000ff" stroke="none" stroke-opacity="1"/><path d="m34.865 42.06 10.351 16.536-3.451-16.536z" fill="#3f1840" fill-opacity="1" data-original-color="#000000ff" stroke="none" stroke-opacity="1"/><path d="m43.65107 34.80783h-5.24244a.1771.1771 0 0 0 -.1347.07253l-3.40857 5.10774h6.99333z" fill="#3f1840" fill-opacity="1" data-original-color="#000000ff" stroke="none" stroke-opacity="1"/><path d="m45.837 34.808-1.782 5.18h6.766l-1.793-5.18z" fill="#3f1840" fill-opacity="1" data-original-color="#000000ff" stroke="none" stroke-opacity="1"/><path d="m43.889 42.06 3.544 16.95 3.543-16.95z" fill="#3f1840" fill-opacity="1" data-original-color="#000000ff" stroke="none" stroke-opacity="1"/><path d="m49.65 58.596 10.35-16.536h-6.9z" fill="#3f1840" fill-opacity="1" data-original-color="#000000ff" stroke="none" stroke-opacity="1"/><path d="m53.00667 39.9881h6.99333l-3.39827-5.10774a.18115.18115 0 0 0 -.14506-.07253h-5.23207z" fill="#3f1840" fill-opacity="1" data-original-color="#000000ff" stroke="none" stroke-opacity="1"/><path d="m41.26966 19.62794a1.01548 1.01548 0 0 0 1.5684-.83443v-.82442a8.44582 8.44582 0 0 1 7.19853 6.47468 8.34767 8.34767 0 0 1 -2.23186 4.04168 1.01564 1.01564 0 0 0 .71378 1.71917.98117.98117 0 0 0 .71379-.30161 10.42815 10.42815 0 0 0 -6.39424-17.72495v-.92494a1.014 1.014 0 0 0 -1.5684-.83449l-5.65027 3.7702a1.003 1.003 0 0 0 0 1.669z" fill="#3f1840" fill-opacity="1" data-original-color="#000000ff" stroke="none" stroke-opacity="1"/><path d="m28.68221 50.433-5.65026-3.77019a1.0315 1.0315 0 0 0 -1.03546-.05032c-.63456.28086-.53908 1.1421-.53294 1.70917a8.44586 8.44586 0 0 1 -7.19855-6.47466 8.3472 8.3472 0 0 1 2.23187-4.04155 1.00607 1.00607 0 0 0 -1.42739-1.41775c-6.2088 6.131-2.20744 16.9789 6.39412 17.725.00613.58007-.13236 1.52139.53282 1.80974a.99281.99281 0 0 0 1.03552-.05026l5.65027-3.77018a.98723.98723 0 0 0 .45243-.83449 1.01365 1.01365 0 0 0 -.45243-.83451z" fill="#3f1840" fill-opacity="1" data-original-color="#000000ff" stroke="none" stroke-opacity="1"/></g></svg>