<svg enable-background="new 0 0 32 32" height="300" viewBox="0 0 32 32" width="300" xmlns="http://www.w3.org/2000/svg" version="1.1" xmlns:xlink="http://www.w3.org/1999/xlink" xmlns:svgjs="http://svgjs.dev/svgjs"><g width="100%" height="100%" transform="matrix(1,0,0,1,0,0)"><g id="_x34_7_operator_home"><g><path d="m20.576 19h.185c-.135.549-.321 1.063-.571 1.524l1.76.951c.433-.801.727-1.698.893-2.668.681-.319 1.157-1.006 1.157-1.807v-2c0-.802-.478-1.49-1.161-1.81-.633-3.784-3.255-6.19-6.839-6.19s-6.206 2.406-6.839 6.19c-.683.32-1.161 1.008-1.161 1.81v2c0 1.103.897 2 2 2h1.424c.774 1.763 2.531 3 4.576 3s3.802-1.237 4.576-3zm.424-4h1v2h-1zm-11 2v-2h1v2zm1.424-4h-.178c.516-2.089 1.96-4 4.754-4s4.238 1.911 4.754 4h-.178c-.774-1.763-2.531-3-4.576-3s-3.802 1.237-4.576 3zm7.576 4c0 1.654-1.346 3-3 3s-3-1.346-3-3v-2c0-1.654 1.346-3 3-3s3 1.346 3 3z" fill="#3f1840" fill-opacity="1" data-original-color="#000000ff" stroke="none" stroke-opacity="1"/><path d="m20 22h-4-4c-2.757 0-5 2.243-5 5v1h18v-1c0-2.757-2.243-5-5-5zm-3 2-1 1.334-1-1.334zm-5 0h.5l1.5 2h-4.829c.413-1.164 1.525-2 2.829-2zm6 2 1.5-2h.5c1.304 0 2.416.836 2.829 2z" fill="#3f1840" fill-opacity="1" data-original-color="#000000ff" stroke="none" stroke-opacity="1"/><path d="m31 17v-1.969l-3-2.5v-9.531h-6v3.453l-5.329-5.453h-1.33l-14.341 14.08v1.92h3v12h-3v2h3 24 3v-2h-3v-12zm-7-12h2v5.546l-2-2.047zm-18 24v-14h-2.063l12.054-11.835 10.294 10.534 1.553 1.301h-1.838v14z" fill="#3f1840" fill-opacity="1" data-original-color="#000000ff" stroke="none" stroke-opacity="1"/></g></g></g></svg>