<svg xmlns="http://www.w3.org/2000/svg" viewBox="0 0 64 64" width="300" height="300" version="1.1" xmlns:xlink="http://www.w3.org/1999/xlink" xmlns:svgjs="http://svgjs.dev/svgjs"><g width="100%" height="100%" transform="matrix(1,0,0,1,0,0)"><g id="coronavirus-covid19-virus-insurance-protect"><path d="M9,11.721V26.75A34.812,34.812,0,0,0,28.347,58.056L32,59.882l3.653-1.826a34.9,34.9,0,0,0,3.619-2.126,12.09,12.09,0,0,1-2.937-2.847c-.8.488-1.612.96-2.464,1.39l-1.424.712a1,1,0,0,1-.894,0l-1.42-.71A30.817,30.817,0,0,1,13,26.75V15.32a1,1,0,0,1,.684-.949l18-6a1,1,0,0,1,.632,0l18,6A1,1,0,0,1,51,15.32V26.75a31.344,31.344,0,0,1-1.038,7.936,11.991,11.991,0,0,1,3.595,2A34.787,34.787,0,0,0,55,26.75V11.721L32,4.054Z" fill="#3f1840" fill-opacity="1" data-original-color="#000000ff" stroke="none" stroke-opacity="1"/><path d="M30.707,34.05a1.029,1.029,0,0,1-1.414,0l-6.364-6.364L21.515,29.1,30,37.586,44.728,22.858l-1.415-1.415Z" fill="#3f1840" fill-opacity="1" data-original-color="#000000ff" stroke="none" stroke-opacity="1"/><path d="M46,36A10,10,0,1,0,56,46,10.011,10.011,0,0,0,46,36Zm7,12a1.993,1.993,0,0,1-1.722-1h-1.42a3.915,3.915,0,0,1-.425,1.019l1.006,1.006a2,2,0,1,1-1.414,1.414l-1.006-1.006A3.915,3.915,0,0,1,47,49.858v1.42a2,2,0,1,1-2,0v-1.42a3.915,3.915,0,0,1-1.019-.425l-1.006,1.006a2,2,0,1,1-1.414-1.414l1.006-1.006A3.915,3.915,0,0,1,42.142,47h-1.42a2,2,0,1,1,0-2h1.42a3.915,3.915,0,0,1,.425-1.019l-1.006-1.006a2.016,2.016,0,0,1-.511.074,2,2,0,1,1,1.925-1.488l1.006,1.006A3.915,3.915,0,0,1,45,42.142v-1.42a2,2,0,1,1,2,0v1.42a3.915,3.915,0,0,1,1.019.425l1.006-1.006a1.993,1.993,0,1,1,1.925,1.488,2.016,2.016,0,0,1-.511-.074l-1.006,1.006A3.915,3.915,0,0,1,49.858,45h1.42A2,2,0,1,1,53,48Z" fill="#3f1840" fill-opacity="1" data-original-color="#000000ff" stroke="none" stroke-opacity="1"/><circle cx="46" cy="46" r="2" fill="#3f1840" fill-opacity="1" data-original-color="#000000ff" stroke="none" stroke-opacity="1"/><path d="M46,34a11.984,11.984,0,0,1,2.027.185A29.325,29.325,0,0,0,49,26.75V16.041L32,10.374,15,16.041V26.75A28.827,28.827,0,0,0,31.027,52.686l.973.486.973-.486c.8-.4,1.569-.847,2.316-1.306A11.975,11.975,0,0,1,46,34ZM30.707,39.707a1,1,0,0,1-1.414,0l-9.9-9.9a1,1,0,0,1,0-1.414l2.828-2.829a1.029,1.029,0,0,1,1.414,0L30,31.929,42.606,19.322a1.031,1.031,0,0,1,1.415,0l2.828,2.829a1,1,0,0,1,0,1.414Z" fill="#3f1840" fill-opacity="1" data-original-color="#000000ff" stroke="none" stroke-opacity="1"/></g></g></svg>