<svg xmlns="http://www.w3.org/2000/svg" viewBox="0 0 64 64" width="300" height="300" version="1.1" xmlns:xlink="http://www.w3.org/1999/xlink" xmlns:svgjs="http://svgjs.dev/svgjs"><g width="100%" height="100%" transform="matrix(1,0,0,1,0,0)"><g id="Protect-Heart_beat-Madical-Health_care-Heart" data-name="Protect-Heart beat-Madical-Health care-Heart"><path d="M57.608,9.319l-25-5.172a2.965,2.965,0,0,0-1.216,0l-25,5.172A3.012,3.012,0,0,0,4,12.257V32C4,46.184,28.513,58.253,32,59.9,35.487,58.252,60,46.175,60,32V12.257A3.012,3.012,0,0,0,57.608,9.319Zm-22.75,36.4c-1.31,1.259-2.167,2-2.2,2.035a1,1,0,0,1-1.31,0C30.719,47.213,16,34.349,16,25a9.011,9.011,0,0,1,9-9,8.916,8.916,0,0,1,7,3.222A8.916,8.916,0,0,1,39,16a9.011,9.011,0,0,1,9,9,1,1,0,0,1-2,0,7.008,7.008,0,0,0-7-7,6.859,6.859,0,0,0-6.125,3.485,1.041,1.041,0,0,1-1.75,0A6.859,6.859,0,0,0,25,18a7.008,7.008,0,0,0-7,7c0,7.4,11.154,18.058,14,20.657.368-.334.873-.8,1.472-1.378a1,1,0,1,1,1.385,1.442ZM51,35H48a1,1,0,0,1-.9-.553l-.7-1.393L43.98,45.2A1,1,0,0,1,43,46h-.031a1,1,0,0,1-.96-.865l-2.2-16.1L37.98,38.2a1,1,0,0,1-1.917.155L33.869,32.5,32.9,34.447A1,1,0,0,1,32,35H29a1,1,0,0,1,0-2h2.382L33.1,29.553a1,1,0,0,1,1.832.1l1.77,4.72L39.02,22.8a1.027,1.027,0,0,1,1.011-.8,1,1,0,0,1,.96.865l2.2,16.1L45.02,29.8a1,1,0,0,1,1.875-.251L48.618,33H51a1,1,0,0,1,0,2Z" fill="#3f1840" fill-opacity="1" data-original-color="#000000ff" stroke="none" stroke-opacity="1"/></g></g></svg>